<svg width="46" height="44" viewBox="0 0 46 44" fill="none" xmlns="http://www.w3.org/2000/svg">
<path d="M23 42.0027C26.8718 38.9172 31.8502 37.2213 37.0007 37.2335C40.2809 37.2335 41.921 37.2335 42.6455 36.8138C43.0802 36.5601 43.2566 36.3979 43.5359 36.003C44 35.3449 44 34.1717 44 31.8214V16.064C44 13.3398 44 11.9796 42.8471 10.8751C41.6942 9.77056 40.0583 9.68471 37.7 9.57025" stroke-width="4" stroke-linecap="round" stroke-linejoin="round"/>
<path d="M22.805 23.1792C22.805 23.1792 24.5297 3.67249 34.2602 2.04048C35.9578 1.75448 37.3684 3.13249 37.3684 4.7885V29.0146C37.3684 30.1186 36.4322 30.9986 35.2879 31.1206C24.6504 32.2566 22.805 42.0027 22.805 42.0027M22.805 23.1792V42.0027M22.805 23.1792C18.9956 19.9531 14.0523 7.99651 8.93429 8.00251C8.55009 8.00251 8.16867 8.01251 7.79002 8.03251C5.45154 8.15051 4.2823 8.21051 3.14219 9.36852C2 10.5265 2 11.9525 2 14.8085V31.3286C2 33.7926 2 35.0226 2.45979 35.7126C2.67115 36.0655 2.97538 36.3586 3.34192 36.5627C4.05969 37.0027 5.68456 37.0027 8.93429 37.0027C14.037 36.9899 18.9691 38.7678 22.805 42.0027" stroke-width="4" stroke-linecap="round" stroke-linejoin="round"/>
    <style>
        * {
            stroke: #000000
        }
        @media (prefers-color-scheme: dark){
            * {
             stroke: #FEEBEB
            }
        }
    </style>
</svg>
